<svg width="24" height="27" viewBox="0 0 24 27" fill="none" xmlns="http://www.w3.org/2000/svg">
<path d="M5.61014 2.031C5.7322 1.89017 5.80076 1.69916 5.80076 1.5C5.80076 1.30084 5.7322 1.10983 5.61014 0.969001C5.48809 0.828171 5.32255 0.749054 5.14994 0.749054C4.97733 0.749054 4.81179 0.828171 4.68974 0.969001L2.54994 3.4395L1.71014 2.469C1.64971 2.39927 1.57796 2.34396 1.499 2.30622C1.42004 2.26848 1.33541 2.24905 1.24994 2.24905C1.16448 2.24905 1.07985 2.26848 1.00088 2.30622C0.921922 2.34396 0.850176 2.39927 0.789742 2.469C0.729308 2.53873 0.681369 2.62152 0.648662 2.71263C0.615955 2.80374 0.599121 2.90139 0.599121 3C0.599121 3.09862 0.615955 3.19627 0.648662 3.28738C0.681369 3.37849 0.729308 3.46127 0.789742 3.531L2.08974 5.031C2.15012 5.10085 2.22185 5.15626 2.30082 5.19407C2.37979 5.23188 2.46444 5.25134 2.54994 5.25134C2.63544 5.25134 2.7201 5.23188 2.79907 5.19407C2.87803 5.15626 2.94976 5.10085 3.01014 5.031L5.61014 2.031ZM9.37494 2.25C9.11636 2.25 8.86836 2.36853 8.68551 2.57951C8.50267 2.79048 8.39994 3.07663 8.39994 3.375C8.39994 3.67337 8.50267 3.95952 8.68551 4.1705C8.86836 4.38147 9.11636 4.5 9.37494 4.5H20.4249C20.6835 4.5 20.9315 4.38147 21.1144 4.1705C21.2972 3.95952 21.3999 3.67337 21.3999 3.375C21.3999 3.07663 21.2972 2.79048 21.1144 2.57951C20.9315 2.36853 20.6835 2.25 20.4249 2.25H9.37494ZM9.37494 9.75C9.11636 9.75 8.86836 9.86853 8.68551 10.0795C8.50267 10.2905 8.39994 10.5766 8.39994 10.875C8.39994 11.1734 8.50267 11.4595 8.68551 11.6705C8.86836 11.8815 9.11636 12 9.37494 12H20.4249C20.6835 12 20.9315 11.8815 21.1144 11.6705C21.2972 11.4595 21.3999 11.1734 21.3999 10.875C21.3999 10.5766 21.2972 10.2905 21.1144 10.0795C20.9315 9.86853 20.6835 9.75 20.4249 9.75H9.37494ZM11.0285 19.5C11.0887 18.7288 11.2432 17.9713 11.4874 17.25H9.37494C9.11636 17.25 8.86836 17.3685 8.68551 17.5795C8.50267 17.7905 8.39994 18.0766 8.39994 18.375C8.39994 18.6734 8.50267 18.9595 8.68551 19.1705C8.86836 19.3815 9.11636 19.5 9.37494 19.5H11.0285ZM5.61014 10.281C5.67058 10.2113 5.71852 10.1285 5.75122 10.0374C5.78393 9.94627 5.80076 9.84862 5.80076 9.75C5.80076 9.65139 5.78393 9.55373 5.75122 9.46263C5.71852 9.37152 5.67058 9.28873 5.61014 9.219C5.54971 9.14927 5.47796 9.09395 5.399 9.05622C5.32004 9.01848 5.23541 8.99905 5.14994 8.99905C5.06448 8.99905 4.97985 9.01848 4.90088 9.05622C4.82192 9.09395 4.75018 9.14927 4.68974 9.219L2.54994 11.6895L1.71014 10.719C1.58809 10.5782 1.42255 10.4991 1.24994 10.4991C1.07733 10.4991 0.911795 10.5782 0.789742 10.719C0.667689 10.8598 0.599121 11.0508 0.599121 11.25C0.599121 11.4492 0.667689 11.6402 0.789742 11.781L2.08974 13.281C2.15012 13.3508 2.22185 13.4063 2.30082 13.4441C2.37979 13.4819 2.46444 13.5013 2.54994 13.5013C2.63544 13.5013 2.7201 13.4819 2.79907 13.4441C2.87803 13.4063 2.94976 13.3508 3.01014 13.281L5.61014 10.281ZM5.61014 16.719C5.67067 16.7887 5.7187 16.8714 5.75147 16.9626C5.78424 17.0537 5.8011 17.1514 5.8011 17.25C5.8011 17.3487 5.78424 17.4463 5.75147 17.5375C5.7187 17.6286 5.67067 17.7113 5.61014 17.781L3.01014 20.781C2.94976 20.8508 2.87803 20.9063 2.79907 20.9441C2.7201 20.9819 2.63544 21.0013 2.54994 21.0013C2.46444 21.0013 2.37979 20.9819 2.30082 20.9441C2.22185 20.9063 2.15012 20.8508 2.08974 20.781L0.789742 19.281C0.667689 19.1402 0.599121 18.9492 0.599121 18.75C0.599121 18.5508 0.667689 18.3598 0.789742 18.219C0.911795 18.0782 1.07733 17.9991 1.24994 17.9991C1.42255 17.9991 1.58809 18.0782 1.71014 18.219L2.54994 19.1895L4.68974 16.719C4.75012 16.6492 4.82185 16.5937 4.90082 16.5559C4.97979 16.5181 5.06445 16.4987 5.14994 16.4987C5.23544 16.4987 5.3201 16.5181 5.39907 16.5559C5.47803 16.5937 5.54976 16.6492 5.61014 16.719ZM23.9999 20.25C23.9999 22.0402 23.3836 23.7571 22.2865 25.023C21.1894 26.2888 19.7015 27 18.1499 27C16.5984 27 15.1105 26.2888 14.0134 25.023C12.9163 23.7571 12.2999 22.0402 12.2999 20.25C12.2999 18.4598 12.9163 16.7429 14.0134 15.477C15.1105 14.2112 16.5984 13.5 18.1499 13.5C19.7015 13.5 21.1894 14.2112 22.2865 15.477C23.3836 16.7429 23.9999 18.4598 23.9999 20.25ZM18.7999 17.25C18.7999 17.0511 18.7315 16.8603 18.6096 16.7197C18.4877 16.579 18.3223 16.5 18.1499 16.5C17.9776 16.5 17.8122 16.579 17.6903 16.7197C17.5684 16.8603 17.4999 17.0511 17.4999 17.25V19.5H15.5499C15.3776 19.5 15.2122 19.579 15.0903 19.7197C14.9684 19.8603 14.8999 20.0511 14.8999 20.25C14.8999 20.4489 14.9684 20.6397 15.0903 20.7803C15.2122 20.921 15.3776 21 15.5499 21H17.4999V23.25C17.4999 23.4489 17.5684 23.6397 17.6903 23.7803C17.8122 23.921 17.9776 24 18.1499 24C18.3223 24 18.4877 23.921 18.6096 23.7803C18.7315 23.6397 18.7999 23.4489 18.7999 23.25V21H20.7499C20.9223 21 21.0877 20.921 21.2096 20.7803C21.3315 20.6397 21.3999 20.4489 21.3999 20.25C21.3999 20.0511 21.3315 19.8603 21.2096 19.7197C21.0877 19.579 20.9223 19.5 20.7499 19.5H18.7999V17.25Z" fill="#7DA4CA"/>
</svg>
