<svg width="24" height="22" viewBox="0 0 24 22" fill="none" xmlns="http://www.w3.org/2000/svg">
<path d="M16.7191 18.752L16.0791 13.628C15.9884 12.9022 15.6357 12.2346 15.0873 11.7506C14.5388 11.2667 13.8325 10.9997 13.1011 11H10.8971C10.166 11.0002 9.46016 11.2674 8.91217 11.7513C8.36417 12.2352 8.01174 12.9026 7.92108 13.628L7.28008 18.752C7.24491 19.0335 7.27002 19.3193 7.35376 19.5903C7.4375 19.8614 7.57796 20.1116 7.76579 20.3242C7.95362 20.5368 8.18454 20.707 8.44321 20.8235C8.70188 20.94 8.98238 21.0002 9.26608 21H14.7341C15.0177 21.0001 15.2981 20.9398 15.5566 20.8232C15.8152 20.7066 16.046 20.5364 16.2337 20.3238C16.4214 20.1112 16.5618 19.8611 16.6455 19.5901C16.7292 19.3191 16.7543 19.0334 16.7191 18.752V18.752Z" stroke="#7DA4CA" stroke-width="2" stroke-linecap="round" stroke-linejoin="round"/>
<path d="M12 7C13.6569 7 15 5.65685 15 4C15 2.34315 13.6569 1 12 1C10.3431 1 9 2.34315 9 4C9 5.65685 10.3431 7 12 7Z" stroke="#7DA4CA" stroke-width="2"/>
<path d="M4 10C5.10457 10 6 9.10457 6 8C6 6.89543 5.10457 6 4 6C2.89543 6 2 6.89543 2 8C2 9.10457 2.89543 10 4 10Z" stroke="#7DA4CA" stroke-width="2"/>
<path d="M20 10C21.1046 10 22 9.10457 22 8C22 6.89543 21.1046 6 20 6C18.8954 6 18 6.89543 18 8C18 9.10457 18.8954 10 20 10Z" stroke="#7DA4CA" stroke-width="2"/>
<path d="M4.00009 13H3.69409C3.22065 12.9999 2.76254 13.1678 2.40126 13.4738C2.03998 13.7798 1.79897 14.204 1.72109 14.671L1.38809 16.671C1.3403 16.9575 1.35551 17.2511 1.43265 17.5311C1.5098 17.8112 1.64704 18.0711 1.83481 18.2928C2.02259 18.5144 2.2564 18.6925 2.51998 18.8146C2.78356 18.9368 3.07058 19 3.36109 19H7.00009M20.0001 13H20.3061C20.7795 12.9999 21.2376 13.1678 21.5989 13.4738C21.9602 13.7798 22.2012 14.204 22.2791 14.671L22.6121 16.671C22.6599 16.9575 22.6447 17.2511 22.5675 17.5311C22.4904 17.8112 22.3531 18.0711 22.1654 18.2928C21.9776 18.5144 21.7438 18.6925 21.4802 18.8146C21.2166 18.9368 20.9296 19 20.6391 19H17.0001" stroke="#7DA4CA" stroke-width="2" stroke-linecap="round" stroke-linejoin="round"/>
</svg>
