<svg width="22" height="24" viewBox="0 0 22 24" fill="none" xmlns="http://www.w3.org/2000/svg">
<path d="M17.5998 8.56135V3.25C17.5998 2.86543 17.4576 2.49662 17.2044 2.22469C16.9512 1.95277 16.6078 1.8 16.2498 1.8H2.7498C2.39176 1.8 2.04838 1.95277 1.79521 2.22469C1.54204 2.49662 1.3998 2.86543 1.3998 3.25V17.75C1.3998 18.1346 1.54204 18.5034 1.79521 18.7753C2.04838 19.0472 2.39176 19.2 2.7498 19.2H9.50385C9.53491 19.6988 9.6348 20.1961 9.76575 20.65H2.7498C2.03372 20.65 1.34696 20.3445 0.840616 19.8006C0.334268 19.2568 0.0498047 18.5191 0.0498047 17.75V3.25C0.0498047 2.48087 0.334268 1.74324 0.840616 1.19939C1.34696 0.655533 2.03372 0.349998 2.7498 0.349998H16.2498C16.9659 0.349998 17.6526 0.655533 18.159 1.19939C18.6653 1.74324 18.9498 2.48087 18.9498 3.25V9.41975C18.743 9.22211 18.5167 9.04949 18.2748 8.905C18.061 8.76661 17.8349 8.65149 17.5998 8.56135ZM5.1123 7.6C5.38084 7.6 5.63837 7.48542 5.82825 7.28148C6.01813 7.07753 6.1248 6.80092 6.1248 6.5125C6.1248 6.22408 6.01813 5.94747 5.82825 5.74352C5.63837 5.53957 5.38084 5.425 5.1123 5.425C4.84377 5.425 4.58624 5.53957 4.39636 5.74352C4.20648 5.94747 4.0998 6.22408 4.0998 6.5125C4.0998 6.80092 4.20648 7.07753 4.39636 7.28148C4.58624 7.48542 4.84377 7.6 5.1123 7.6ZM6.1248 10.8625C6.1248 11.1509 6.01813 11.4275 5.82825 11.6315C5.63837 11.8354 5.38084 11.95 5.1123 11.95C4.84377 11.95 4.58624 11.8354 4.39636 11.6315C4.20648 11.4275 4.0998 11.1509 4.0998 10.8625C4.0998 10.5741 4.20648 10.2975 4.39636 10.0935C4.58624 9.88958 4.84377 9.775 5.1123 9.775C5.38084 9.775 5.63837 9.88958 5.82825 10.0935C6.01813 10.2975 6.1248 10.5741 6.1248 10.8625ZM6.1248 15.2125C6.1248 15.5009 6.01813 15.7775 5.82825 15.9815C5.63837 16.1854 5.38084 16.3 5.1123 16.3C4.84377 16.3 4.58624 16.1854 4.39636 15.9815C4.20648 15.7775 4.0998 15.5009 4.0998 15.2125C4.0998 14.9241 4.20648 14.6475 4.39636 14.4435C4.58624 14.2396 4.84377 14.125 5.1123 14.125C5.38084 14.125 5.63837 14.2396 5.82825 14.4435C6.01813 14.6475 6.1248 14.9241 6.1248 15.2125ZM8.14981 6.875C8.14981 6.68272 8.22092 6.49831 8.34751 6.36235C8.47409 6.22638 8.64578 6.15 8.82481 6.15H14.2248C14.4038 6.15 14.5755 6.22638 14.7021 6.36235C14.8287 6.49831 14.8998 6.68272 14.8998 6.875C14.8998 7.06728 14.8287 7.25169 14.7021 7.38765C14.5755 7.52361 14.4038 7.6 14.2248 7.6H8.82481C8.64578 7.6 8.47409 7.52361 8.34751 7.38765C8.22092 7.25169 8.14981 7.06728 8.14981 6.875ZM8.14981 11.225C8.14981 11.0327 8.22092 10.8483 8.34751 10.7123C8.47409 10.5764 8.64578 10.5 8.82481 10.5H12.7142C12.4817 10.9502 12.3254 11.4412 12.2525 11.95H8.82481C8.64578 11.95 8.47409 11.8736 8.34751 11.7377C8.22092 11.6017 8.14981 11.4173 8.14981 11.225ZM13.2798 15.575C13.0766 15.357 12.8985 15.1136 12.7493 14.85H8.82481C8.64578 14.85 8.47409 14.9264 8.34751 15.0623C8.22092 15.1983 8.14981 15.3827 8.14981 15.575C8.14981 15.7673 8.22092 15.9517 8.34751 16.0877C8.47409 16.2236 8.64578 16.3 8.82481 16.3H10.6109C11.1828 15.8287 11.8839 15.5737 12.6048 15.575H13.2798ZM17.5998 10.1636C17.2927 9.97318 16.9536 9.84961 16.602 9.79993C16.2504 9.75026 15.8931 9.77545 15.5506 9.87408C14.8588 10.0733 14.269 10.5595 13.9109 11.2257C13.5529 11.892 13.4559 12.6837 13.6414 13.4268C13.8268 14.1698 14.2795 14.8033 14.8998 15.1878C15.5201 15.5724 16.2572 15.6766 16.949 15.4774C17.6408 15.2782 18.2306 14.792 18.5887 14.1257C18.9467 13.4595 19.0437 12.6677 18.8582 11.9247C18.6728 11.1816 18.2201 10.5482 17.5998 10.1636ZM10.8498 18.8375C10.8498 17.837 11.6058 17.025 12.5373 17.025H19.9623C20.8938 17.025 21.6498 17.837 21.6498 18.8375V18.9651C21.6512 19.0681 21.6525 19.171 21.6485 19.274C21.6359 19.4952 21.6061 19.7149 21.5594 19.9308C21.4429 20.468 21.2322 20.9763 20.9384 21.4286C20.1986 22.5597 18.7946 23.55 16.2498 23.55C14.075 23.55 12.7317 22.825 11.9285 21.9115C11.4406 21.3579 11.0998 20.6739 10.9416 19.9308C10.8944 19.715 10.8642 19.4952 10.8512 19.274L10.8498 18.8419V18.8375Z" fill="white"/>
</svg>
