<svg width="24" height="24" viewBox="0 0 24 24" fill="none" xmlns="http://www.w3.org/2000/svg">
<path d="M13 12H22M22 12L18.667 8M22 12L18.667 16M14 7V5.174C14 4.89738 13.9426 4.62376 13.8314 4.37045C13.7203 4.11714 13.5578 3.88964 13.3542 3.70234C13.1507 3.51503 12.9104 3.37199 12.6488 3.28225C12.3871 3.19252 12.1097 3.15804 11.834 3.181L3.834 3.847C3.33405 3.88864 2.86801 4.11665 2.5283 4.48581C2.18859 4.85498 2.00002 5.33832 2 5.84V18.16C2.00002 18.6617 2.18859 19.145 2.5283 19.5142C2.86801 19.8834 3.33405 20.1114 3.834 20.153L11.834 20.82C12.1098 20.843 12.3873 20.8085 12.649 20.7187C12.9107 20.6289 13.151 20.4857 13.3546 20.2983C13.5582 20.1109 13.7206 19.8833 13.8317 19.6299C13.9428 19.3764 14.0001 19.1027 14 18.826V17" stroke="#7DA4CA" stroke-width="2" stroke-linecap="round" stroke-linejoin="round"/>
</svg>
