<svg width="27" height="29" viewBox="0 0 27 29" fill="none" xmlns="http://www.w3.org/2000/svg">
<path d="M25.8099 18.0872L23.1875 15.5494V12.1875C23.1845 9.86422 22.2914 7.62455 20.681 5.90155C19.0705 4.17855 16.8571 3.09462 14.4688 2.85938V0.9375H12.5312V2.85938C10.1429 3.09462 7.92946 4.17855 6.31901 5.90155C4.70857 7.62455 3.8155 9.86422 3.8125 12.1875V15.5494L1.19009 18.0872C1.00841 18.263 0.906305 18.5014 0.90625 18.75V21.5625C0.90625 21.8111 1.00831 22.0496 1.18999 22.2254C1.37167 22.4012 1.61807 22.5 1.875 22.5H8.65625V23.2284C8.63518 24.4178 9.06836 25.5728 9.87279 26.4722C10.6772 27.3716 11.7963 27.9521 13.0156 28.1025C13.6891 28.1671 14.3691 28.0946 15.0118 27.8897C15.6546 27.6847 16.2459 27.3519 16.7478 26.9125C17.2496 26.4731 17.6509 25.9369 17.9257 25.3384C18.2006 24.74 18.343 24.0924 18.3438 23.4375V22.5H25.125C25.3819 22.5 25.6283 22.4012 25.81 22.2254C25.9917 22.0496 26.0938 21.8111 26.0938 21.5625V18.75C26.0937 18.5014 25.9916 18.263 25.8099 18.0872ZM16.4062 23.4375C16.4062 24.1834 16.1001 24.8988 15.555 25.4262C15.01 25.9537 14.2708 26.25 13.5 26.25C12.7292 26.25 11.99 25.9537 11.445 25.4262C10.8999 24.8988 10.5938 24.1834 10.5938 23.4375V22.5H16.4062V23.4375ZM24.1562 20.625H2.84375V19.1381L5.46616 16.6003C5.64784 16.4245 5.74995 16.1861 5.75 15.9375V12.1875C5.75 10.1984 6.56651 8.29072 8.01992 6.8842C9.47333 5.47768 11.4446 4.6875 13.5 4.6875C15.5554 4.6875 17.5267 5.47768 18.9801 6.8842C20.4335 8.29072 21.25 10.1984 21.25 12.1875V15.9375C21.2501 16.1861 21.3522 16.4245 21.5338 16.6003L24.1562 19.1381V20.625Z" fill="#7DA4CA"/>
</svg>
