<svg width="26" height="28" viewBox="0 0 26 28" fill="none" xmlns="http://www.w3.org/2000/svg">
<path d="M3.9999 8.30001C3.9999 7.7961 4.18954 7.31283 4.52711 6.95651C4.86468 6.60019 5.32251 6.40001 5.7999 6.40001H20.1999C20.6773 6.40001 21.1351 6.60019 21.4727 6.95651C21.8103 7.31283 21.9999 7.7961 21.9999 8.30001V12.1C21.9999 12.6039 21.8103 13.0872 21.4727 13.4435C21.1351 13.7998 20.6773 14 20.1999 14H5.7999C5.32251 14 4.86468 13.7998 4.52711 13.4435C4.18954 13.0872 3.9999 12.6039 3.9999 12.1V8.30001ZM20.1999 8.30001H5.7999V12.1H20.1999V8.30001ZM16.5999 15.9C16.1225 15.9 15.6647 16.1002 15.3271 16.4565C14.9895 16.8128 14.7999 17.2961 14.7999 17.8V19.7C14.7999 20.2039 14.9895 20.6872 15.3271 21.0435C15.6647 21.3998 16.1225 21.6 16.5999 21.6H20.1999C20.6773 21.6 21.1351 21.3998 21.4727 21.0435C21.8103 20.6872 21.9999 20.2039 21.9999 19.7V17.8C21.9999 17.2961 21.8103 16.8128 21.4727 16.4565C21.1351 16.1002 20.6773 15.9 20.1999 15.9H16.5999ZM16.5999 17.8H20.1999V19.7H16.5999V17.8ZM3.9999 16.85C3.9999 16.5981 4.09472 16.3564 4.26351 16.1783C4.43229 16.0001 4.66121 15.9 4.8999 15.9H12.0999C12.3386 15.9 12.5675 16.0001 12.7363 16.1783C12.9051 16.3564 12.9999 16.5981 12.9999 16.85C12.9999 17.102 12.9051 17.3436 12.7363 17.5218C12.5675 17.6999 12.3386 17.8 12.0999 17.8H4.8999C4.66121 17.8 4.43229 17.6999 4.26351 17.5218C4.09472 17.3436 3.9999 17.102 3.9999 16.85ZM4.8999 19.7C4.66121 19.7 4.43229 19.8001 4.26351 19.9783C4.09472 20.1564 3.9999 20.3981 3.9999 20.65C3.9999 20.902 4.09472 21.1436 4.26351 21.3218C4.43229 21.4999 4.66121 21.6 4.8999 21.6H12.0999C12.3386 21.6 12.5675 21.4999 12.7363 21.3218C12.9051 21.1436 12.9999 20.902 12.9999 20.65C12.9999 20.3981 12.9051 20.1564 12.7363 19.9783C12.5675 19.8001 12.3386 19.7 12.0999 19.7H4.8999ZM0.399902 6.40001C0.399902 4.88828 0.968829 3.43846 1.98153 2.3695C2.99422 1.30055 4.36773 0.700012 5.7999 0.700012H20.1999C21.6321 0.700012 23.0056 1.30055 24.0183 2.3695C25.031 3.43846 25.5999 4.88828 25.5999 6.40001V21.6C25.5999 23.1117 25.031 24.5616 24.0183 25.6305C23.0056 26.6995 21.6321 27.3 20.1999 27.3H5.7999C4.36773 27.3 2.99422 26.6995 1.98153 25.6305C0.968829 24.5616 0.399902 23.1117 0.399902 21.6V6.40001ZM5.7999 2.60001C4.84512 2.60001 3.92945 3.00037 3.25432 3.71301C2.57919 4.42564 2.1999 5.39219 2.1999 6.40001V21.6C2.1999 22.6078 2.57919 23.5744 3.25432 24.287C3.92945 24.9997 4.84512 25.4 5.7999 25.4H20.1999C21.1547 25.4 22.0704 24.9997 22.7455 24.287C23.4206 23.5744 23.7999 22.6078 23.7999 21.6V6.40001C23.7999 5.39219 23.4206 4.42564 22.7455 3.71301C22.0704 3.00037 21.1547 2.60001 20.1999 2.60001H5.7999Z" fill="#7DA4CA"/>
</svg>
